  0
SECTION
  2
HEADER
  9
$ACADVER
  1
AC1014
  9
$HANDSEED
  5
FFFF
  9
$MEASUREMENT
 70
     1
  0
ENDSEC
  0
SECTION
  2
TABLES
  0
TABLE
  2
VPORT
  5
8
330
0
100
AcDbSymbolTable
 70
     4
  0
VPORT
  5
2E
330
8
100
AcDbSymbolTableRecord
100
AcDbViewportTableRecord
  2
*ACTIVE
 70
     0
 10
0.0
 20
0.0
 11
1.0
 21
1.0
 12
210.0
 22
148.5
 13
0.0
 23
0.0
 14
10.0
 24
10.0
 15
10.0
 25
10.0
 16
0.0
 26
0.0
 36
1.0
 17
0.0
 27
0.0
 37
0.0
 40
341.0
 41
1.24
 42
50.0
 43
0.0
 44
0.0
 50
0.0
 51
0.0
 71
     0
 72
   100
 73
     1
 74
     3
 75
     0
 76
     0
 77
     0
 78
     0
  0
ENDTAB
  0
TABLE
  2
LTYPE
  5
5
330
0
100
AcDbSymbolTable
 70
     1
  0
LTYPE
  5
14
330
5
100
AcDbSymbolTableRecord
100
AcDbLinetypeTableRecord
  2
BYBLOCK
 70
     0
  3

 72
    65
 73
     0
 40
0.0
  0
LTYPE
  5
15
330
5
100
AcDbSymbolTableRecord
100
AcDbLinetypeTableRecord
  2
BYLAYER
 70
     0
  3

 72
    65
 73
     0
 40
0.0
  0
LTYPE
  5
16
330
5
100
AcDbSymbolTableRecord
100
AcDbLinetypeTableRecord
  2
CONTINUOUS
 70
     0
  3
Solid line
 72
    65
 73
     0
 40
0.0
  0
ENDTAB
  0
TABLE
  2
LAYER
  5
2
100
AcDbSymbolTable
 70
2
  0
LAYER
  5
50
100
AcDbSymbolTableRecord
100
AcDbLayerTableRecord
  2
0
 70
0
  6
CONTINUOUS
  0
LAYER
  5
51
100
AcDbSymbolTableRecord
100
AcDbLayerTableRecord
  2
Layer_1
 70
0
  6
CONTINUOUS
  0
ENDTAB
  0
TABLE
  2
STYLE
  5
3
330
0
100
AcDbSymbolTable
 70
     1
  0
STYLE
  5
11
330
3
100
AcDbSymbolTableRecord
100
AcDbTextStyleTableRecord
  2
STANDARD
 70
     0
 40
0.0
 41
1.0
 50
0.0
 71
     0
 42
2.5
  3
txt
  4

  0
ENDTAB
  0
TABLE
  2
VIEW
  5
6
330
0
100
AcDbSymbolTable
 70
     0
  0
ENDTAB
  0
TABLE
  2
UCS
  5
7
330
0
100
AcDbSymbolTable
 70
     0
  0
ENDTAB
  0
TABLE
  2
APPID
  5
9
330
0
100
AcDbSymbolTable
 70
     2
  0
APPID
  5
12
330
9
100
AcDbSymbolTableRecord
100
AcDbRegAppTableRecord
  2
ACAD
 70
     0
  0
ENDTAB
  0
TABLE
  2
DIMSTYLE
  5
A
330
0
100
AcDbSymbolTable
 70
     1
  0
DIMSTYLE
105
27
330
A
100
AcDbSymbolTableRecord
100
AcDbDimStyleTableRecord
  2
ISO-25
 70
     0
  3

  4

  5

  6

  7

 40
1.0
 41
2.5
 42
0.625
 43
3.75
 44
1.25
 45
0.0
 46
0.0
 47
0.0
 48
0.0
140
2.5
141
2.5
142
0.0
143
0.03937007874016
144
1.0
145
0.0
146
1.0
147
0.625
 71
     0
 72
     0
 73
     0
 74
     0
 75
     0
 76
     0
 77
     1
 78
     8
170
     0
171
     3
172
     1
173
     0
174
     0
175
     0
176
     0
177
     0
178
     0
270
     2
271
     2
272
     2
273
     2
274
     3
340
11
275
     0
280
     0
281
     0
282
     0
283
     0
284
     8
285
     0
286
     0
287
     3
288
     0
  0
ENDTAB
  0
TABLE
  2
BLOCK_RECORD
  5
1
330
0
100
AcDbSymbolTable
 70
     1
  0
BLOCK_RECORD
  5
1F
330
1
100
AcDbSymbolTableRecord
100
AcDbBlockTableRecord
  2
*MODEL_SPACE
  0
BLOCK_RECORD
  5
1B
330
1
100
AcDbSymbolTableRecord
100
AcDbBlockTableRecord
  2
*PAPER_SPACE
  0
ENDTAB
  0
ENDSEC
  0
SECTION
  2
BLOCKS
  0
BLOCK
  5
20
330
1F
100
AcDbEntity
  8
0
100
AcDbBlockBegin
  2
*MODEL_SPACE
 70
     0
 10
0.0
 20
0.0
 30
0.0
  3
*MODEL_SPACE
  1

  0
ENDBLK
  5
21
330
1F
100
AcDbEntity
  8
0
100
AcDbBlockEnd
  0
BLOCK
  5
1C
330
1B
100
AcDbEntity
 67
     1
  8
0
100
AcDbBlockBegin
  2
*PAPER_SPACE
  1

  0
ENDBLK
  5
1D
330
1B
100
AcDbEntity
 67
     1
  8
0
100
AcDbBlockEnd
  0
ENDSEC
  0
SECTION
  2
ENTITIES
  0
SPLINE
  5
100
100
AcDbEntity
  8
Layer_1
 62
1
100
AcDbSpline
 70
8
 71
3
 72
8
 73
4
 74
0
 40
0
 40
0
 40
0
 40
0
 40
1
 40
1
 40
1
 40
1
 10
148.650873
 20
200.515927
 30
0.0
 10
146.096739
 20
200.522492
 30
0.0
 10
145.047574
 20
200.345872
 30
0.0
 10
144.397903
 20
199.903563
 30
0.0
  0
SPLINE
  5
101
100
AcDbEntity
  8
Layer_1
 62
1
100
AcDbSpline
 70
8
 71
3
 72
8
 73
4
 74
0
 40
0
 40
0
 40
0
 40
0
 40
1
 40
1
 40
1
 40
1
 10
144.397903
 20
199.903563
 30
0.0
 10
143.249632
 20
199.121780
 30
0.0
 10
143.060770
 20
198.674041
 30
0.0
 10
142.791800
 20
196.089324
 30
0.0
  0
SPLINE
  5
102
100
AcDbEntity
  8
Layer_1
 62
1
100
AcDbSpline
 70
8
 71
3
 72
8
 73
4
 74
0
 40
0
 40
0
 40
0
 40
0
 40
1
 40
1
 40
1
 40
1
 10
142.791800
 20
196.089324
 30
0.0
 10
142.535379
 20
193.626564
 30
0.0
 10
142.360063
 20
193.038549
 30
0.0
 10
141.792895
 20
192.740691
 30
0.0
  0
SPLINE
  5
103
100
AcDbEntity
  8
Layer_1
 62
1
100
AcDbSpline
 70
8
 71
3
 72
8
 73
4
 74
0
 40
0
 40
0
 40
0
 40
0
 40
1
 40
1
 40
1
 40
1
 10
141.792895
 20
192.740691
 30
0.0
 10
141.611605
 20
192.645491
 30
0.0
 10
139.970603
 20
192.034764
 30
0.0
 10
138.146606
 20
191.383667
 30
0.0
  0
SPLINE
  5
104
100
AcDbEntity
  8
Layer_1
 62
1
100
AcDbSpline
 70
8
 71
3
 72
8
 73
4
 74
0
 40
0
 40
0
 40
0
 40
0
 40
1
 40
1
 40
1
 40
1
 10
138.146606
 20
191.383667
 30
0.0
 10
136.322605
 20
190.732567
 30
0.0
 10
134.175797
 20
189.917891
 30
0.0
 10
133.375838
 20
189.572925
 30
0.0
  0
SPLINE
  5
105
100
AcDbEntity
  8
Layer_1
 62
1
100
AcDbSpline
 70
8
 71
3
 72
8
 73
4
 74
0
 40
0
 40
0
 40
0
 40
0
 40
1
 40
1
 40
1
 40
1
 10
133.375838
 20
189.572925
 30
0.0
 10
132.575867
 20
189.227974
 30
0.0
 10
130.909876
 20
188.505352
 30
0.0
 10
129.673737
 20
187.967338
 30
0.0
  0
SPLINE
  5
106
100
AcDbEntity
  8
Layer_1
 62
1
100
AcDbSpline
 70
8
 71
3
 72
8
 73
4
 74
0
 40
0
 40
0
 40
0
 40
0
 40
1
 40
1
 40
1
 40
1
 10
129.673737
 20
187.967338
 30
0.0
 10
128.437596
 20
187.429324
 30
0.0
 10
127.140302
 20
186.989105
 30
0.0
 10
126.790192
 20
186.989105
 30
0.0
  0
SPLINE
  5
107
100
AcDbEntity
  8
Layer_1
 62
1
100
AcDbSpline
 70
8
 71
3
 72
8
 73
4
 74
0
 40
0
 40
0
 40
0
 40
0
 40
1
 40
1
 40
1
 40
1
 10
126.790192
 20
186.989105
 30
0.0
 10
126.263221
 20
186.989105
 30
0.0
 10
125.884333
 20
187.236831
 30
0.0
 10
124.589292
 20
188.429327
 30
0.0
  0
SPLINE
  5
108
100
AcDbEntity
  8
Layer_1
 62
1
100
AcDbSpline
 70
8
 71
3
 72
8
 73
4
 74
0
 40
0
 40
0
 40
0
 40
0
 40
1
 40
1
 40
1
 40
1
 10
124.589292
 20
188.429327
 30
0.0
 10
123.729074
 20
189.221437
 30
0.0
 10
122.810001
 20
189.951411
 30
0.0
 10
122.547040
 20
190.051450
 30
0.0
  0
SPLINE
  5
109
100
AcDbEntity
  8
Layer_1
 62
1
100
AcDbSpline
 70
8
 71
3
 72
8
 73
4
 74
0
 40
0
 40
0
 40
0
 40
0
 40
1
 40
1
 40
1
 40
1
 10
122.547040
 20
190.051450
 30
0.0
 10
121.739449
 20
190.358502
 30
0.0
 10
120.146102
 20
190.266988
 30
0.0
 10
119.517251
 20
189.877299
 30
0.0
  0
SPLINE
  5
10a
100
AcDbEntity
  8
Layer_1
 62
1
100
AcDbSpline
 70
8
 71
3
 72
8
 73
4
 74
0
 40
0
 40
0
 40
0
 40
0
 40
1
 40
1
 40
1
 40
1
 10
119.517251
 20
189.877299
 30
0.0
 10
118.701472
 20
189.371768
 30
0.0
 10
111.975674
 20
182.795292
 30
0.0
 10
111.347725
 20
181.889158
 30
0.0
  0
SPLINE
  5
10b
100
AcDbEntity
  8
Layer_1
 62
1
100
AcDbSpline
 70
8
 71
3
 72
8
 73
4
 74
0
 40
0
 40
0
 40
0
 40
0
 40
1
 40
1
 40
1
 40
1
 10
111.347725
 20
181.889158
 30
0.0
 10
110.678985
 20
180.924222
 30
0.0
 10
110.474171
 20
179.466228
 30
0.0
 10
110.896073
 20
178.674367
 30
0.0
  0
SPLINE
  5
10c
100
AcDbEntity
  8
Layer_1
 62
1
100
AcDbSpline
 70
8
 71
3
 72
8
 73
4
 74
0
 40
0
 40
0
 40
0
 40
0
 40
1
 40
1
 40
1
 40
1
 10
110.896073
 20
178.674367
 30
0.0
 10
111.059893
 20
178.366977
 30
0.0
 10
111.803348
 20
177.387278
 30
0.0
 10
112.548169
 20
176.497238
 30
0.0
  0
SPLINE
  5
10d
100
AcDbEntity
  8
Layer_1
 62
1
100
AcDbSpline
 70
8
 71
3
 72
8
 73
4
 74
0
 40
0
 40
0
 40
0
 40
0
 40
1
 40
1
 40
1
 40
1
 10
112.548169
 20
176.497238
 30
0.0
 10
113.292979
 20
175.607198
 30
0.0
 10
113.949381
 20
174.692415
 30
0.0
 10
114.006475
 20
174.464804
 30
0.0
  0
SPLINE
  5
10e
100
AcDbEntity
  8
Layer_1
 62
1
100
AcDbSpline
 70
8
 71
3
 72
8
 73
4
 74
0
 40
0
 40
0
 40
0
 40
0
 40
1
 40
1
 40
1
 40
1
 10
114.006475
 20
174.464804
 30
0.0
 10
114.076346
 20
174.186404
 30
0.0
 10
113.487312
 20
172.717665
 30
0.0
 10
112.207102
 20
169.976706
 30
0.0
  0
SPLINE
  5
10f
100
AcDbEntity
  8
Layer_1
 62
1
100
AcDbSpline
 70
8
 71
3
 72
8
 73
4
 74
0
 40
0
 40
0
 40
0
 40
0
 40
1
 40
1
 40
1
 40
1
 10
112.207102
 20
169.976706
 30
0.0
 10
111.160373
 20
167.735696
 30
0.0
 10
109.901261
 20
164.785494
 30
0.0
 10
109.409340
 20
163.421035
 30
0.0
  0
SPLINE
  5
110
100
AcDbEntity
  8
Layer_1
 62
1
100
AcDbSpline
 70
8
 71
3
 72
8
 73
4
 74
0
 40
0
 40
0
 40
0
 40
0
 40
1
 40
1
 40
1
 40
1
 10
109.409340
 20
163.421035
 30
0.0
 10
108.917387
 20
162.056573
 30
0.0
 10
108.300860
 20
160.459678
 30
0.0
 10
108.039399
 20
159.871896
 30
0.0
  0
SPLINE
  5
111
100
AcDbEntity
  8
Layer_1
 62
1
100
AcDbSpline
 70
8
 71
3
 72
8
 73
4
 74
0
 40
0
 40
0
 40
0
 40
0
 40
1
 40
1
 40
1
 40
1
 10
105.267992
 20
158.679723
 30
0.0
 10
102.618592
 20
158.537271
 30
0.0
 10
101.622420
 20
158.198348
 30
0.0
 10
100.841388
 20
157.174387
 30
0.0
  0
SPLINE
  5
112
100
AcDbEntity
  8
Layer_1
 62
1
100
AcDbSpline
 70
8
 71
3
 72
8
 73
4
 74
0
 40
0
 40
0
 40
0
 40
0
 40
1
 40
1
 40
1
 40
1
 10
100.841388
 20
157.174387
 30
0.0
 10
100.060481
 20
156.150388
 30
0.0
 10
99.922805
 20
154.866619
 30
0.0
 10
99.990795
 20
149.230169
 30
0.0
  0
SPLINE
  5
113
100
AcDbEntity
  8
Layer_1
 62
1
100
AcDbSpline
 70
8
 71
3
 72
8
 73
4
 74
0
 40
0
 40
0
 40
0
 40
0
 40
1
 40
1
 40
1
 40
1
 10
99.990795
 20
149.230169
 30
0.0
 10
100.058264
 20
143.643421
 30
0.0
 10
100.091871
 20
143.469470
 30
0.0
 10
101.291489
 20
142.460040
 30
0.0
  0
SPLINE
  5
114
100
AcDbEntity
  8
Layer_1
 62
1
100
AcDbSpline
 70
8
 71
3
 72
8
 73
4
 74
0
 40
0
 40
0
 40
0
 40
0
 40
1
 40
1
 40
1
 40
1
 10
101.291489
 20
142.460040
 30
0.0
 10
101.974889
 20
141.885010
 30
0.0
 10
102.566556
 20
141.752219
 30
0.0
 10
105.160505
 20
141.592910
 30
0.0
  0
SPLINE
  5
115
100
AcDbEntity
  8
Layer_1
 62
1
100
AcDbSpline
 70
8
 71
3
 72
8
 73
4
 74
0
 40
0
 40
0
 40
0
 40
0
 40
1
 40
1
 40
1
 40
1
 10
105.160505
 20
141.592910
 30
0.0
 10
106.912385
 20
141.485299
 30
0.0
 10
107.103163
 20
141.435033
 30
0.0
 10
107.425483
 20
140.998114
 30
0.0
  0
SPLINE
  5
116
100
AcDbEntity
  8
Layer_1
 62
1
100
AcDbSpline
 70
8
 71
3
 72
8
 73
4
 74
0
 40
0
 40
0
 40
0
 40
0
 40
1
 40
1
 40
1
 40
1
 10
107.425483
 20
140.998114
 30
0.0
 10
107.435940
 20
140.983937
 30
0.0
 10
107.453479
 20
140.949790
 30
0.0
 10
107.466825
 20
140.927317
 30
0.0
  0
SPLINE
  5
117
100
AcDbEntity
  8
Layer_1
 62
1
100
AcDbSpline
 70
8
 71
3
 72
8
 73
4
 74
0
 40
0
 40
0
 40
0
 40
0
 40
1
 40
1
 40
1
 40
1
 10
107.466825
 20
140.927317
 30
0.0
 10
107.491605
 20
140.677052
 30
0.0
 10
107.421919
 20
139.733696
 30
0.0
 10
106.327359
 20
136.612851
 30
0.0
  0
SPLINE
  5
118
100
AcDbEntity
  8
Layer_1
 62
1
100
AcDbSpline
 70
8
 71
3
 72
8
 73
4
 74
0
 40
0
 40
0
 40
0
 40
0
 40
1
 40
1
 40
1
 40
1
 10
106.327359
 20
136.612851
 30
0.0
 10
105.671801
 20
135.205699
 30
0.0
 10
104.732014
 20
132.036811
 30
0.0
 10
103.929573
 20
128.403016
 30
0.0
  0
SPLINE
  5
119
100
AcDbEntity
  8
Layer_1
 62
1
100
AcDbSpline
 70
8
 71
3
 72
8
 73
4
 74
0
 40
0
 40
0
 40
0
 40
0
 40
1
 40
1
 40
1
 40
1
 10
103.929573
 20
128.403016
 30
0.0
 10
103.544051
 20
126.657128
 30
0.0
 10
103.487724
 20
125.908201
 30
0.0
 10
103.502726
 20
122.582701
 30
0.0
  0
SPLINE
  5
11a
100
AcDbEntity
  8
Layer_1
 62
1
100
AcDbSpline
 70
8
 71
3
 72
8
 73
4
 74
0
 40
0
 40
0
 40
0
 40
0
 40
1
 40
1
 40
1
 40
1
 10
103.502726
 20
122.582701
 30
0.0
 10
103.521054
 20
118.120069
 30
0.0
 10
103.755691
 20
116.748980
 30
0.0
 10
104.902123
 20
114.402322
 30
0.0
  0
SPLINE
  5
11b
100
AcDbEntity
  8
Layer_1
 62
1
100
AcDbSpline
 70
8
 71
3
 72
8
 73
4
 74
0
 40
0
 40
0
 40
0
 40
0
 40
1
 40
1
 40
1
 40
1
 10
104.902123
 20
114.402322
 30
0.0
 10
107.029553
 20
110.047823
 30
0.0
 10
111.107316
 20
107.473805
 30
0.0
 10
116.532936
 20
107.060134
 30
0.0
  0
SPLINE
  5
11c
100
AcDbEntity
  8
Layer_1
 62
1
100
AcDbSpline
 70
8
 71
3
 72
8
 73
4
 74
0
 40
0
 40
0
 40
0
 40
0
 40
1
 40
1
 40
1
 40
1
 10
116.532936
 20
107.060134
 30
0.0
 10
120.531658
 20
106.755255
 30
0.0
 10
125.306840
 20
107.468098
 30
0.0
 10
130.267499
 20
109.110139
 30
0.0
  0
SPLINE
  5
11d
100
AcDbEntity
  8
Layer_1
 62
1
100
AcDbSpline
 70
8
 71
3
 72
8
 73
4
 74
0
 40
0
 40
0
 40
0
 40
0
 40
1
 40
1
 40
1
 40
1
 10
130.267499
 20
109.110139
 30
0.0
 10
131.506551
 20
109.520283
 30
0.0
 10
132.757842
 20
109.980798
 30
0.0
 10
134.018690
 20
110.481631
 30
0.0
  0
SPLINE
  5
11e
100
AcDbEntity
  8
Layer_1
 62
1
100
AcDbSpline
 70
8
 71
3
 72
8
 73
4
 74
0
 40
0
 40
0
 40
0
 40
0
 40
1
 40
1
 40
1
 40
1
 10
134.018690
 20
110.481631
 30
0.0
 10
134.530125
 20
110.272284
 30
0.0
 10
135.045607
 20
110.072604
 30
0.0
 10
135.564849
 20
109.882701
 30
0.0
  0
SPLINE
  5
11f
100
AcDbEntity
  8
Layer_1
 62
1
100
AcDbSpline
 70
8
 71
3
 72
8
 73
4
 74
0
 40
0
 40
0
 40
0
 40
0
 40
1
 40
1
 40
1
 40
1
 10
135.564849
 20
109.882701
 30
0.0
 10
135.312643
 20
109.744666
 30
0.0
 10
135.118442
 20
109.631514
 30
0.0
 10
135.070306
 20
109.583495
 30
0.0
  0
SPLINE
  5
120
100
AcDbEntity
  8
Layer_1
 62
1
100
AcDbSpline
 70
8
 71
3
 72
8
 73
4
 74
0
 40
0
 40
0
 40
0
 40
0
 40
1
 40
1
 40
1
 40
1
 10
135.070306
 20
109.583495
 30
0.0
 10
134.815978
 20
109.330143
 30
0.0
 10
134.826699
 20
109.273014
 30
0.0
 10
135.165908
 20
109.072415
 30
0.0
  0
SPLINE
  5
121
100
AcDbEntity
  8
Layer_1
 62
1
100
AcDbSpline
 70
8
 71
3
 72
8
 73
4
 74
0
 40
0
 40
0
 40
0
 40
0
 40
1
 40
1
 40
1
 40
1
 10
135.165908
 20
109.072415
 30
0.0
 10
135.375828
 20
108.948225
 30
0.0
 10
136.673821
 20
108.449385
 30
0.0
 10
138.050485
 20
107.963954
 30
0.0
  0
SPLINE
  5
122
100
AcDbEntity
  8
Layer_1
 62
1
100
AcDbSpline
 70
8
 71
3
 72
8
 73
4
 74
0
 40
0
 40
0
 40
0
 40
0
 40
1
 40
1
 40
1
 40
1
 10
138.050485
 20
107.963954
 30
0.0
 10
139.427157
 20
107.478576
 30
0.0
 10
140.812034
 20
106.928507
 30
0.0
 10
141.128335
 20
106.741806
 30
0.0
  0
LWPOLYLINE
  5
123
100
AcDbEntity
  8
Layer_1
 62
1
100
AcDbPolyline
 90
3
 70
0
 10
108.039399
 20
159.871896
 30
0.0
 10
107.563458
 20
158.803228
 30
0.0
 10
105.267992
 20
158.679723
 30
0.0
  0
SPLINE
  5
124
100
AcDbEntity
  8
Layer_1
 62
1
100
AcDbSpline
 70
8
 71
3
 72
8
 73
4
 74
0
 40
0
 40
0
 40
0
 40
0
 40
1
 40
1
 40
1
 40
1
 10
141.838885
 20
103.954897
 30
0.0
 10
142.056086
 20
100.027546
 30
0.0
 10
142.670020
 20
99.284718
 30
0.0
 10
145.931658
 20
99.002228
 30
0.0
  0
SPLINE
  5
125
100
AcDbEntity
  8
Layer_1
 62
1
100
AcDbSpline
 70
8
 71
3
 72
8
 73
4
 74
0
 40
0
 40
0
 40
0
 40
0
 40
1
 40
1
 40
1
 40
1
 10
145.931658
 20
99.002228
 30
0.0
 10
148.277560
 20
98.799068
 30
0.0
 10
155.832258
 20
98.924692
 30
0.0
 10
156.645216
 20
99.180512
 30
0.0
  0
SPLINE
  5
126
100
AcDbEntity
  8
Layer_1
 62
1
100
AcDbSpline
 70
8
 71
3
 72
8
 73
4
 74
0
 40
0
 40
0
 40
0
 40
0
 40
1
 40
1
 40
1
 40
1
 10
156.645216
 20
99.180512
 30
0.0
 10
157.526927
 20
99.457901
 30
0.0
 10
158.263609
 20
100.252948
 30
0.0
 10
158.524689
 20
101.209329
 30
0.0
  0
SPLINE
  5
127
100
AcDbEntity
  8
Layer_1
 62
1
100
AcDbSpline
 70
8
 71
3
 72
8
 73
4
 74
0
 40
0
 40
0
 40
0
 40
0
 40
1
 40
1
 40
1
 40
1
 10
158.524689
 20
101.209329
 30
0.0
 10
158.639638
 20
101.629167
 30
0.0
 10
158.789484
 20
102.932870
 30
0.0
 10
158.857485
 20
104.106310
 30
0.0
  0
LWPOLYLINE
  5
128
100
AcDbEntity
  8
Layer_1
 62
1
100
AcDbPolyline
 90
3
 70
0
 10
141.128335
 20
106.741806
 30
0.0
 10
141.703495
 20
106.402293
 30
0.0
 10
141.838885
 20
103.954897
 30
0.0
  0
SPLINE
  5
129
100
AcDbEntity
  8
Layer_1
 62
1
100
AcDbSpline
 70
8
 71
3
 72
8
 73
4
 74
0
 40
0
 40
0
 40
0
 40
0
 40
1
 40
1
 40
1
 40
1
 10
160.079116
 20
106.732506
 30
0.0
 10
160.683025
 20
107.003506
 30
0.0
 10
162.409167
 20
107.646845
 30
0.0
 10
163.915056
 20
108.161875
 30
0.0
  0
SPLINE
  5
12a
100
AcDbEntity
  8
Layer_1
 62
1
100
AcDbSpline
 70
8
 71
3
 72
8
 73
4
 74
0
 40
0
 40
0
 40
0
 40
0
 40
1
 40
1
 40
1
 40
1
 10
163.915056
 20
108.161875
 30
0.0
 10
165.420998
 20
108.676865
 30
0.0
 10
167.641069
 20
109.543564
 30
0.0
 10
168.848091
 20
110.088373
 30
0.0
  0
SPLINE
  5
12b
100
AcDbEntity
  8
Layer_1
 62
1
100
AcDbSpline
 70
8
 71
3
 72
8
 73
4
 74
0
 40
0
 40
0
 40
0
 40
0
 40
1
 40
1
 40
1
 40
1
 10
168.848091
 20
110.088373
 30
0.0
 10
172.977689
 20
111.952344
 30
0.0
 10
174.030958
 20
112.372989
 30
0.0
 10
174.570737
 20
112.372989
 30
0.0
  0
SPLINE
  5
12c
100
AcDbEntity
  8
Layer_1
 62
1
100
AcDbSpline
 70
8
 71
3
 72
8
 73
4
 74
0
 40
0
 40
0
 40
0
 40
0
 40
1
 40
1
 40
1
 40
1
 10
174.570737
 20
112.372989
 30
0.0
 10
175.131027
 20
112.372989
 30
0.0
 10
176.446583
 20
111.443365
 30
0.0
 10
177.530763
 20
110.281127
 30
0.0
  0
SPLINE
  5
12d
100
AcDbEntity
  8
Layer_1
 62
1
100
AcDbSpline
 70
8
 71
3
 72
8
 73
4
 74
0
 40
0
 40
0
 40
0
 40
0
 40
1
 40
1
 40
1
 40
1
 10
177.530763
 20
110.281127
 30
0.0
 10
178.355184
 20
109.397506
 30
0.0
 10
178.986995
 20
109.129025
 30
0.0
 10
180.240676
 20
109.129774
 30
0.0
  0
SPLINE
  5
12e
100
AcDbEntity
  8
Layer_1
 62
1
100
AcDbSpline
 70
8
 71
3
 72
8
 73
4
 74
0
 40
0
 40
0
 40
0
 40
0
 40
1
 40
1
 40
1
 40
1
 10
180.240676
 20
109.129774
 30
0.0
 10
181.022377
 20
109.130306
 30
0.0
 10
181.543495
 20
109.247484
 30
0.0
 10
182.015244
 20
109.529234
 30
0.0
  0
SPLINE
  5
12f
100
AcDbEntity
  8
Layer_1
 62
1
100
AcDbSpline
 70
8
 71
3
 72
8
 73
4
 74
0
 40
0
 40
0
 40
0
 40
0
 40
1
 40
1
 40
1
 40
1
 10
182.015244
 20
109.529234
 30
0.0
 10
183.128314
 20
110.194254
 30
0.0
 10
190.365036
 20
117.556480
 30
0.0
 10
190.704637
 20
118.369521
 30
0.0
  0
SPLINE
  5
130
100
AcDbEntity
  8
Layer_1
 62
1
100
AcDbSpline
 70
8
 71
3
 72
8
 73
4
 74
0
 40
0
 40
0
 40
0
 40
0
 40
1
 40
1
 40
1
 40
1
 10
190.704637
 20
118.369521
 30
0.0
 10
191.248665
 20
119.671512
 30
0.0
 10
190.727603
 20
120.917273
 30
0.0
 10
188.708893
 20
123.139773
 30
0.0
  0
SPLINE
  5
131
100
AcDbEntity
  8
Layer_1
 62
1
100
AcDbSpline
 70
8
 71
3
 72
8
 73
4
 74
0
 40
0
 40
0
 40
0
 40
0
 40
1
 40
1
 40
1
 40
1
 10
188.708893
 20
123.139773
 30
0.0
 10
187.966443
 20
123.957193
 30
0.0
 10
187.358586
 20
124.755565
 30
0.0
 10
187.358586
 20
124.913823
 30
0.0
  0
SPLINE
  5
132
100
AcDbEntity
  8
Layer_1
 62
1
100
AcDbSpline
 70
8
 71
3
 72
8
 73
4
 74
0
 40
0
 40
0
 40
0
 40
0
 40
1
 40
1
 40
1
 40
1
 10
187.358586
 20
124.913823
 30
0.0
 10
187.358586
 20
125.072073
 30
0.0
 10
188.122976
 20
126.844834
 30
0.0
 10
189.056674
 20
128.853636
 30
0.0
  0
SPLINE
  5
133
100
AcDbEntity
  8
Layer_1
 62
1
100
AcDbSpline
 70
8
 71
3
 72
8
 73
4
 74
0
 40
0
 40
0
 40
0
 40
0
 40
1
 40
1
 40
1
 40
1
 10
189.056674
 20
128.853636
 30
0.0
 10
191.091754
 20
133.232016
 30
0.0
 10
191.538074
 20
134.285558
 30
0.0
 10
192.492125
 20
136.960117
 30
0.0
  0
SPLINE
  5
134
100
AcDbEntity
  8
Layer_1
 62
1
100
AcDbSpline
 70
8
 71
3
 72
8
 73
4
 74
0
 40
0
 40
0
 40
0
 40
0
 40
1
 40
1
 40
1
 40
1
 10
192.492125
 20
136.960117
 30
0.0
 10
193.302644
 20
139.232327
 30
0.0
 10
193.725144
 20
140.135228
 30
0.0
 10
194.084276
 20
140.361976
 30
0.0
  0
SPLINE
  5
135
100
AcDbEntity
  8
Layer_1
 62
1
100
AcDbSpline
 70
8
 71
3
 72
8
 73
4
 74
0
 40
0
 40
0
 40
0
 40
0
 40
1
 40
1
 40
1
 40
1
 10
194.084276
 20
140.361976
 30
0.0
 10
194.216200
 20
140.445336
 30
0.0
 10
195.455839
 20
140.607401
 30
0.0
 10
196.838628
 20
140.722161
 30
0.0
  0
SPLINE
  5
136
100
AcDbEntity
  8
Layer_1
 62
1
100
AcDbSpline
 70
8
 71
3
 72
8
 73
4
 74
0
 40
0
 40
0
 40
0
 40
0
 40
1
 40
1
 40
1
 40
1
 10
196.838628
 20
140.722161
 30
0.0
 10
199.135587
 20
140.912791
 30
0.0
 10
199.413159
 20
140.977270
 30
0.0
 10
200.054969
 20
141.466818
 30
0.0
  0
SPLINE
  5
137
100
AcDbEntity
  8
Layer_1
 62
1
100
AcDbSpline
 70
8
 71
3
 72
8
 73
4
 74
0
 40
0
 40
0
 40
0
 40
0
 40
1
 40
1
 40
1
 40
1
 10
200.054969
 20
141.466818
 30
0.0
 10
201.345091
 20
142.450909
 30
0.0
 10
201.384046
 20
142.676424
 30
0.0
 10
201.384604
 20
149.203814
 30
0.0
  0
SPLINE
  5
138
100
AcDbEntity
  8
Layer_1
 62
1
100
AcDbSpline
 70
8
 71
3
 72
8
 73
4
 74
0
 40
0
 40
0
 40
0
 40
0
 40
1
 40
1
 40
1
 40
1
 10
201.384604
 20
149.203814
 30
0.0
 10
201.385136
 20
155.839474
 30
0.0
 10
201.330997
 20
156.170322
 30
0.0
 10
200.114398
 20
156.975433
 30
0.0
  0
SPLINE
  5
139
100
AcDbEntity
  8
Layer_1
 62
1
100
AcDbSpline
 70
8
 71
3
 72
8
 73
4
 74
0
 40
0
 40
0
 40
0
 40
0
 40
1
 40
1
 40
1
 40
1
 10
200.114398
 20
156.975433
 30
0.0
 10
199.454778
 20
157.411943
 30
0.0
 10
199.055241
 20
157.499615
 30
0.0
 10
197.031383
 20
157.652393
 30
0.0
  0
SPLINE
  5
13a
100
AcDbEntity
  8
Layer_1
 62
1
100
AcDbSpline
 70
8
 71
3
 72
8
 73
4
 74
0
 40
0
 40
0
 40
0
 40
0
 40
1
 40
1
 40
1
 40
1
 10
197.031383
 20
157.652393
 30
0.0
 10
194.448891
 20
157.847333
 30
0.0
 10
194.015937
 20
158.020680
 30
0.0
 10
193.512218
 20
159.063160
 30
0.0
  0
SPLINE
  5
13b
100
AcDbEntity
  8
Layer_1
 62
1
100
AcDbSpline
 70
8
 71
3
 72
8
 73
4
 74
0
 40
0
 40
0
 40
0
 40
0
 40
1
 40
1
 40
1
 40
1
 10
193.512218
 20
159.063160
 30
0.0
 10
193.328968
 20
159.442371
 30
0.0
 10
193.093028
 20
159.762528
 30
0.0
 10
192.988219
 20
159.774227
 30
0.0
  0
SPLINE
  5
13c
100
AcDbEntity
  8
Layer_1
 62
1
100
AcDbSpline
 70
8
 71
3
 72
8
 73
4
 74
0
 40
0
 40
0
 40
0
 40
0
 40
1
 40
1
 40
1
 40
1
 10
192.988219
 20
159.774227
 30
0.0
 10
192.960040
 20
159.777365
 30
0.0
 10
192.884129
 20
159.684682
 30
0.0
 10
192.780994
 20
159.536518
 30
0.0
  0
SPLINE
  5
13d
100
AcDbEntity
  8
Layer_1
 62
1
100
AcDbSpline
 70
8
 71
3
 72
8
 73
4
 74
0
 40
0
 40
0
 40
0
 40
0
 40
1
 40
1
 40
1
 40
1
 10
192.780994
 20
159.536518
 30
0.0
 10
192.606622
 20
160.256907
 30
0.0
 10
192.413114
 20
160.972697
 30
0.0
 10
192.200668
 20
161.683156
 30
0.0
  0
SPLINE
  5
13e
100
AcDbEntity
  8
Layer_1
 62
1
100
AcDbSpline
 70
8
 71
3
 72
8
 73
4
 74
0
 40
0
 40
0
 40
0
 40
0
 40
1
 40
1
 40
1
 40
1
 10
192.200668
 20
161.683156
 30
0.0
 10
193.979348
 20
165.451897
 30
0.0
 10
195.768944
 20
169.623411
 30
0.0
 10
197.066522
 20
173.092278
 30
0.0
  0
SPLINE
  5
13f
100
AcDbEntity
  8
Layer_1
 62
1
100
AcDbSpline
 70
8
 71
3
 72
8
 73
4
 74
0
 40
0
 40
0
 40
0
 40
0
 40
1
 40
1
 40
1
 40
1
 10
197.066522
 20
173.092278
 30
0.0
 10
198.280832
 20
176.339089
 30
0.0
 10
198.357937
 20
176.649733
 30
0.0
 10
197.983779
 20
176.793344
 30
0.0
  0
SPLINE
  5
140
100
AcDbEntity
  8
Layer_1
 62
1
100
AcDbSpline
 70
8
 71
3
 72
8
 73
4
 74
0
 40
0
 40
0
 40
0
 40
0
 40
1
 40
1
 40
1
 40
1
 10
197.983779
 20
176.793344
 30
0.0
 10
197.490699
 20
176.982574
 30
0.0
 10
196.494718
 20
176.375847
 30
0.0
 10
193.106556
 20
173.822467
 30
0.0
  0
SPLINE
  5
141
100
AcDbEntity
  8
Layer_1
 62
1
100
AcDbSpline
 70
8
 71
3
 72
8
 73
4
 74
0
 40
0
 40
0
 40
0
 40
0
 40
1
 40
1
 40
1
 40
1
 10
193.106556
 20
173.822467
 30
0.0
 10
191.487470
 20
172.602301
 30
0.0
 10
189.976808
 20
171.426141
 30
0.0
 10
188.547145
 20
170.280564
 30
0.0
  0
SPLINE
  5
142
100
AcDbEntity
  8
Layer_1
 62
1
100
AcDbSpline
 70
8
 71
3
 72
8
 73
4
 74
0
 40
0
 40
0
 40
0
 40
0
 40
1
 40
1
 40
1
 40
1
 10
188.547145
 20
170.280564
 30
0.0
 10
188.370636
 20
170.594058
 30
0.0
 10
188.190099
 20
170.905348
 30
0.0
 10
188.005577
 20
171.214358
 30
0.0
  0
SPLINE
  5
143
100
AcDbEntity
  8
Layer_1
 62
1
100
AcDbSpline
 70
8
 71
3
 72
8
 73
4
 74
0
 40
0
 40
0
 40
0
 40
0
 40
1
 40
1
 40
1
 40
1
 10
188.005577
 20
171.214358
 30
0.0
 10
188.030520
 20
171.234355
 30
0.0
 10
188.186507
 20
171.354307
 30
0.0
 10
188.196263
 20
171.362668
 30
0.0
  0
SPLINE
  5
144
100
AcDbEntity
  8
Layer_1
 62
1
100
AcDbSpline
 70
8
 71
3
 72
8
 73
4
 74
0
 40
0
 40
0
 40
0
 40
0
 40
1
 40
1
 40
1
 40
1
 10
188.196263
 20
171.362668
 30
0.0
 10
188.292801
 20
171.445667
 30
0.0
 10
188.228306
 20
172.053185
 30
0.0
 10
188.045368
 20
172.781186
 30
0.0
  0
LWPOLYLINE
  5
145
100
AcDbEntity
  8
Layer_1
 62
1
100
AcDbPolyline
 90
3
 70
0
 10
158.857485
 20
104.106310
 30
0.0
 10
158.980992
 20
106.239513
 30
0.0
 10
160.079116
 20
106.732506
 30
0.0
  0
SPLINE
  5
146
100
AcDbEntity
  8
Layer_1
 62
1
100
AcDbSpline
 70
8
 71
3
 72
8
 73
4
 74
0
 40
0
 40
0
 40
0
 40
0
 40
1
 40
1
 40
1
 40
1
 10
189.437013
 20
175.824410
 30
0.0
 10
190.668304
 20
177.097212
 30
0.0
 10
191.203805
 20
177.800811
 30
0.0
 10
191.345423
 20
178.331753
 30
0.0
  0
SPLINE
  5
147
100
AcDbEntity
  8
Layer_1
 62
1
100
AcDbSpline
 70
8
 71
3
 72
8
 73
4
 74
0
 40
0
 40
0
 40
0
 40
0
 40
1
 40
1
 40
1
 40
1
 10
191.345423
 20
178.331753
 30
0.0
 10
191.571645
 20
179.180171
 30
0.0
 10
191.385484
 20
180.246243
 30
0.0
 10
190.874134
 20
181.029778
 30
0.0
  0
SPLINE
  5
148
100
AcDbEntity
  8
Layer_1
 62
1
100
AcDbSpline
 70
8
 71
3
 72
8
 73
4
 74
0
 40
0
 40
0
 40
0
 40
0
 40
1
 40
1
 40
1
 40
1
 10
190.874134
 20
181.029778
 30
0.0
 10
190.687325
 20
181.316044
 30
0.0
 10
188.767773
 20
183.326120
 30
0.0
 10
186.608763
 20
185.496172
 30
0.0
  0
SPLINE
  5
149
100
AcDbEntity
  8
Layer_1
 62
1
100
AcDbSpline
 70
8
 71
3
 72
8
 73
4
 74
0
 40
0
 40
0
 40
0
 40
0
 40
1
 40
1
 40
1
 40
1
 10
186.608763
 20
185.496172
 30
0.0
 10
183.370593
 20
188.750851
 30
0.0
 10
182.544535
 20
189.481554
 30
0.0
 10
181.890705
 20
189.671112
 30
0.0
  0
SPLINE
  5
14a
100
AcDbEntity
  8
Layer_1
 62
1
100
AcDbSpline
 70
8
 71
3
 72
8
 73
4
 74
0
 40
0
 40
0
 40
0
 40
0
 40
1
 40
1
 40
1
 40
1
 10
181.890705
 20
189.671112
 30
0.0
 10
180.621205
 20
190.039131
 30
0.0
 10
179.953960
 20
189.794098
 30
0.0
 10
178.182921
 20
188.307886
 30
0.0
  0
SPLINE
  5
14b
100
AcDbEntity
  8
Layer_1
 62
1
100
AcDbSpline
 70
8
 71
3
 72
8
 73
4
 74
0
 40
0
 40
0
 40
0
 40
0
 40
1
 40
1
 40
1
 40
1
 10
178.182921
 20
188.307886
 30
0.0
 10
177.299570
 20
187.566592
 30
0.0
 10
176.302641
 20
186.824304
 30
0.0
 10
175.967552
 20
186.658376
 30
0.0
  0
SPLINE
  5
14c
100
AcDbEntity
  8
Layer_1
 62
1
100
AcDbSpline
 70
8
 71
3
 72
8
 73
4
 74
0
 40
0
 40
0
 40
0
 40
0
 40
1
 40
1
 40
1
 40
1
 10
175.967552
 20
186.658376
 30
0.0
 10
175.221271
 20
186.288808
 30
0.0
 10
174.979640
 20
186.369197
 30
0.0
 10
170.374612
 20
188.519243
 30
0.0
  0
SPLINE
  5
14d
100
AcDbEntity
  8
Layer_1
 62
1
100
AcDbSpline
 70
8
 71
3
 72
8
 73
4
 74
0
 40
0
 40
0
 40
0
 40
0
 40
1
 40
1
 40
1
 40
1
 10
170.374612
 20
188.519243
 30
0.0
 10
168.642800
 20
189.327812
 30
0.0
 10
166.280902
 20
190.347715
 30
0.0
 10
165.126353
 20
190.785772
 30
0.0
  0
SPLINE
  5
14e
100
AcDbEntity
  8
Layer_1
 62
1
100
AcDbSpline
 70
8
 71
3
 72
8
 73
4
 74
0
 40
0
 40
0
 40
0
 40
0
 40
1
 40
1
 40
1
 40
1
 10
165.126353
 20
190.785772
 30
0.0
 10
163.971812
 20
191.223830
 30
0.0
 10
162.435313
 20
191.806148
 30
0.0
 10
161.711574
 20
192.080267
 30
0.0
  0
SPLINE
  5
14f
100
AcDbEntity
  8
Layer_1
 62
1
100
AcDbSpline
 70
8
 71
3
 72
8
 73
4
 74
0
 40
0
 40
0
 40
0
 40
0
 40
1
 40
1
 40
1
 40
1
 10
161.711574
 20
192.080267
 30
0.0
 10
159.778034
 20
192.812586
 30
0.0
 10
159.763865
 20
192.837089
 30
0.0
 10
159.600075
 20
195.598398
 30
0.0
  0
SPLINE
  5
150
100
AcDbEntity
  8
Layer_1
 62
1
100
AcDbSpline
 70
8
 71
3
 72
8
 73
4
 74
0
 40
0
 40
0
 40
0
 40
0
 40
1
 40
1
 40
1
 40
1
 10
159.600075
 20
195.598398
 30
0.0
 10
159.442825
 20
198.252216
 30
0.0
 10
159.225301
 20
198.962188
 30
0.0
 10
158.388781
 20
199.557847
 30
0.0
  0
SPLINE
  5
151
100
AcDbEntity
  8
Layer_1
 62
1
100
AcDbSpline
 70
8
 71
3
 72
8
 73
4
 74
0
 40
0
 40
0
 40
0
 40
0
 40
1
 40
1
 40
1
 40
1
 10
158.388781
 20
199.557847
 30
0.0
 10
157.552981
 20
200.152983
 30
0.0
 10
156.476354
 20
200.297689
 30
0.0
 10
151.747324
 20
200.451332
 30
0.0
  0
SPLINE
  5
152
100
AcDbEntity
  8
Layer_1
 62
1
100
AcDbSpline
 70
8
 71
3
 72
8
 73
4
 74
0
 40
0
 40
0
 40
0
 40
0
 40
1
 40
1
 40
1
 40
1
 10
151.747324
 20
200.451332
 30
0.0
 10
150.520597
 20
200.491192
 30
0.0
 10
149.502252
 20
200.513739
 30
0.0
 10
148.650873
 20
200.515927
 30
0.0
  0
LWPOLYLINE
  5
153
100
AcDbEntity
  8
Layer_1
 62
1
100
AcDbPolyline
 90
3
 70
0
 10
188.045368
 20
172.781186
 30
0.0
 10
187.725489
 20
174.055009
 30
0.0
 10
189.437013
 20
175.824410
 30
0.0
  0
LWPOLYLINE
  5
154
100
AcDbEntity
  8
Layer_1
 62
1
100
AcDbPolyline
 90
1
 70
1
 10
148.650873
 20
200.515927
 30
0.0
  0
SPLINE
  5
155
100
AcDbEntity
  8
Layer_1
 62
1
100
AcDbSpline
 70
8
 71
3
 72
8
 73
4
 74
0
 40
0
 40
0
 40
0
 40
0
 40
1
 40
1
 40
1
 40
1
 10
150.542747
 20
171.596245
 30
0.0
 10
150.588567
 20
171.596383
 30
0.0
 10
150.634387
 20
171.596383
 30
0.0
 10
150.680206
 20
171.596245
 30
0.0
  0
SPLINE
  5
156
100
AcDbEntity
  8
Layer_1
 62
1
100
AcDbSpline
 70
8
 71
3
 72
8
 73
4
 74
0
 40
0
 40
0
 40
0
 40
0
 40
1
 40
1
 40
1
 40
1
 10
150.680206
 20
171.596245
 30
0.0
 10
154.846049
 20
171.596015
 30
0.0
 10
158.928412
 20
170.448808
 30
0.0
 10
162.463983
 20
168.284820
 30
0.0
  0
SPLINE
  5
157
100
AcDbEntity
  8
Layer_1
 62
1
100
AcDbSpline
 70
8
 71
3
 72
8
 73
4
 74
0
 40
0
 40
0
 40
0
 40
0
 40
1
 40
1
 40
1
 40
1
 10
162.463983
 20
168.284820
 30
0.0
 10
166.191277
 20
165.932897
 30
0.0
 10
169.075362
 20
162.574077
 30
0.0
 10
171.057774
 20
158.264761
 30
0.0
  0
SPLINE
  5
158
100
AcDbEntity
  8
Layer_1
 62
1
100
AcDbSpline
 70
8
 71
3
 72
8
 73
4
 74
0
 40
0
 40
0
 40
0
 40
0
 40
1
 40
1
 40
1
 40
1
 10
171.057774
 20
158.264761
 30
0.0
 10
171.274899
 20
157.792771
 30
0.0
 10
171.488683
 20
157.375835
 30
0.0
 10
171.678407
 20
157.032795
 30
0.0
  0
SPLINE
  5
159
100
AcDbEntity
  8
Layer_1
 62
1
100
AcDbSpline
 70
8
 71
3
 72
8
 73
4
 74
0
 40
0
 40
0
 40
0
 40
0
 40
1
 40
1
 40
1
 40
1
 10
171.678407
 20
157.032795
 30
0.0
 10
172.039580
 20
156.034284
 30
0.0
 10
172.326450
 20
155.011328
 30
0.0
 10
172.536753
 20
153.972000
 30
0.0
  0
SPLINE
  5
15a
100
AcDbEntity
  8
Layer_1
 62
1
100
AcDbSpline
 70
8
 71
3
 72
8
 73
4
 74
0
 40
0
 40
0
 40
0
 40
0
 40
1
 40
1
 40
1
 40
1
 10
172.536753
 20
153.972000
 30
0.0
 10
172.012650
 20
153.187261
 30
0.0
 10
171.512090
 20
152.403759
 30
0.0
 10
171.031935
 20
151.625373
 30
0.0
  0
SPLINE
  5
15b
100
AcDbEntity
  8
Layer_1
 62
1
100
AcDbSpline
 70
8
 71
3
 72
8
 73
4
 74
0
 40
0
 40
0
 40
0
 40
0
 40
1
 40
1
 40
1
 40
1
 10
171.031935
 20
151.625373
 30
0.0
 10
169.236023
 20
148.871897
 30
0.0
 10
166.358010
 20
144.641995
 30
0.0
 10
165.435378
 20
144.374136
 30
0.0
  0
SPLINE
  5
15c
100
AcDbEntity
  8
Layer_1
 62
1
100
AcDbSpline
 70
8
 71
3
 72
8
 73
4
 74
0
 40
0
 40
0
 40
0
 40
0
 40
1
 40
1
 40
1
 40
1
 10
165.435378
 20
144.374136
 30
0.0
 10
165.254401
 20
144.382627
 30
0.0
 10
164.980912
 20
144.263358
 30
0.0
 10
164.629225
 20
144.038237
 30
0.0
  0
SPLINE
  5
15d
100
AcDbEntity
  8
Layer_1
 62
1
100
AcDbSpline
 70
8
 71
3
 72
8
 73
4
 74
0
 40
0
 40
0
 40
0
 40
0
 40
1
 40
1
 40
1
 40
1
 10
164.629225
 20
144.038237
 30
0.0
 10
163.248333
 20
143.248805
 30
0.0
 10
161.263066
 20
141.259149
 30
0.0
 10
159.460031
 20
139.234915
 30
0.0
  0
SPLINE
  5
15e
100
AcDbEntity
  8
Layer_1
 62
1
100
AcDbSpline
 70
8
 71
3
 72
8
 73
4
 74
0
 40
0
 40
0
 40
0
 40
0
 40
1
 40
1
 40
1
 40
1
 10
159.460031
 20
139.234915
 30
0.0
 10
158.025183
 20
137.731343
 30
0.0
 10
157.110862
 20
136.648827
 30
0.0
 10
156.779575
 20
136.054747
 30
0.0
  0
SPLINE
  5
15f
100
AcDbEntity
  8
Layer_1
 62
1
100
AcDbSpline
 70
8
 71
3
 72
8
 73
4
 74
0
 40
0
 40
0
 40
0
 40
0
 40
1
 40
1
 40
1
 40
1
 10
156.779575
 20
136.054747
 30
0.0
 10
155.800315
 20
134.825448
 30
0.0
 10
155.137581
 20
133.907852
 30
0.0
 10
155.111977
 20
133.767030
 30
0.0
  0
SPLINE
  5
160
100
AcDbEntity
  8
Layer_1
 62
1
100
AcDbSpline
 70
8
 71
3
 72
8
 73
4
 74
0
 40
0
 40
0
 40
0
 40
0
 40
1
 40
1
 40
1
 40
1
 10
155.111977
 20
133.767030
 30
0.0
 10
154.920810
 20
133.693370
 30
0.0
 10
154.754898
 20
133.598935
 30
0.0
 10
154.608131
 20
133.488495
 30
0.0
  0
SPLINE
  5
161
100
AcDbEntity
  8
Layer_1
 62
1
100
AcDbSpline
 70
8
 71
3
 72
8
 73
4
 74
0
 40
0
 40
0
 40
0
 40
0
 40
1
 40
1
 40
1
 40
1
 10
154.608131
 20
133.488495
 30
0.0
 10
154.002860
 20
133.213046
 30
0.0
 10
153.196714
 20
132.768191
 30
0.0
 10
151.984002
 20
132.050855
 30
0.0
  0
SPLINE
  5
162
100
AcDbEntity
  8
Layer_1
 62
1
100
AcDbSpline
 70
8
 71
3
 72
8
 73
4
 74
0
 40
0
 40
0
 40
0
 40
0
 40
1
 40
1
 40
1
 40
1
 10
151.984002
 20
132.050855
 30
0.0
 10
149.707566
 20
130.704319
 30
0.0
 10
147.483138
 20
129.511961
 30
0.0
 10
145.312575
 20
128.467095
 30
0.0
  0
SPLINE
  5
163
100
AcDbEntity
  8
Layer_1
 62
1
100
AcDbSpline
 70
8
 71
3
 72
8
 73
4
 74
0
 40
0
 40
0
 40
0
 40
0
 40
1
 40
1
 40
1
 40
1
 10
145.312575
 20
128.467095
 30
0.0
 10
143.147599
 20
128.994612
 30
0.0
 10
141.075531
 20
129.838420
 30
0.0
 10
139.165664
 20
130.970302
 30
0.0
  0
SPLINE
  5
164
100
AcDbEntity
  8
Layer_1
 62
1
100
AcDbSpline
 70
8
 71
3
 72
8
 73
4
 74
0
 40
0
 40
0
 40
0
 40
0
 40
1
 40
1
 40
1
 40
1
 10
139.165664
 20
130.970302
 30
0.0
 10
134.610905
 20
133.807503
 30
0.0
 10
131.422662
 20
137.908566
 30
0.0
 10
129.709393
 20
143.151470
 30
0.0
  0
SPLINE
  5
165
100
AcDbEntity
  8
Layer_1
 62
1
100
AcDbSpline
 70
8
 71
3
 72
8
 73
4
 74
0
 40
0
 40
0
 40
0
 40
0
 40
1
 40
1
 40
1
 40
1
 10
129.709393
 20
143.151470
 30
0.0
 10
128.624424
 20
146.472020
 30
0.0
 10
128.518643
 20
151.596848
 30
0.0
 10
129.458763
 20
155.305767
 30
0.0
  0
SPLINE
  5
166
100
AcDbEntity
  8
Layer_1
 62
1
100
AcDbSpline
 70
8
 71
3
 72
8
 73
4
 74
0
 40
0
 40
0
 40
0
 40
0
 40
1
 40
1
 40
1
 40
1
 10
129.458763
 20
155.305767
 30
0.0
 10
130.383482
 20
158.954088
 30
0.0
 10
132.802398
 20
163.013384
 30
0.0
 10
135.659419
 20
165.711334
 30
0.0
  0
SPLINE
  5
167
100
AcDbEntity
  8
Layer_1
 62
1
100
AcDbSpline
 70
8
 71
3
 72
8
 73
4
 74
0
 40
0
 40
0
 40
0
 40
0
 40
1
 40
1
 40
1
 40
1
 10
135.659419
 20
165.711334
 30
0.0
 10
136.940918
 20
166.921494
 30
0.0
 10
138.307607
 20
167.946741
 30
0.0
 10
139.755291
 20
168.786081
 30
0.0
  0
LWPOLYLINE
  5
168
100
AcDbEntity
  8
Layer_1
 62
1
100
AcDbPolyline
 90
2
 70
0
 10
150.542232
 20
171.596245
 30
0.0
 10
150.542747
 20
171.596245
 30
0.0
  0
SPLINE
  5
169
100
AcDbEntity
  8
Layer_1
 62
1
100
AcDbSpline
 70
8
 71
3
 72
8
 73
4
 74
0
 40
0
 40
0
 40
0
 40
0
 40
1
 40
1
 40
1
 40
1
 10
139.756841
 20
168.787116
 30
0.0
 10
143.051248
 20
170.606739
 30
0.0
 10
146.762733
 20
171.573421
 30
0.0
 10
150.542232
 20
171.596245
 30
0.0
  0
LWPOLYLINE
  5
16a
100
AcDbEntity
  8
Layer_1
 62
1
100
AcDbPolyline
 90
2
 70
0
 10
139.755291
 20
168.786081
 30
0.0
 10
139.756841
 20
168.787116
 30
0.0
  0
LWPOLYLINE
  5
16b
100
AcDbEntity
  8
Layer_1
 62
1
100
AcDbPolyline
 90
1
 70
1
 10
150.542232
 20
171.596245
 30
0.0
  0
ENDSEC
  0
SECTION
  2
OBJECTS
  0
DICTIONARY
  5
C
330
0
100
AcDbDictionary
  3
ACAD_GROUP
350
D
  3
ACAD_MLINESTYLE
350
17
  0
DICTIONARY
  5
D
330
C
100
AcDbDictionary
  0
DICTIONARY
  5
1A
330
C
100
AcDbDictionary
  0
DICTIONARY
  5
17
330
C
100
AcDbDictionary
  3
STANDARD
350
18
  0
DICTIONARY
  5
19
330
C
100
AcDbDictionary
  0
ENDSEC
  0
EOF
